HIERARCHY
ROOT Hips
{
	OFFSET -0.001795 -0.223333 0.028219
	CHANNELS 6 Xposition Yposition Zposition Zrotation Yrotation Xrotation 
	JOINT LeftUpLeg
	{
		OFFSET 0.069520 -0.091406 -0.006815
		CHANNELS 3 Zrotation Yrotation Xrotation
		JOINT LeftLeg
		{
			OFFSET 0.034277 -0.375199 -0.004496
			CHANNELS 3 Zrotation Yrotation Xrotation
			JOINT LeftFoot
			{
				OFFSET -0.013596 -0.397961 -0.043693
				CHANNELS 3 Zrotation Yrotation Xrotation
				JOINT LeftToe
				{
					OFFSET 0.026358 -0.055791 0.119288
					CHANNELS 3 Zrotation Yrotation Xrotation
					End Site
					{
						OFFSET 0.000000 0.000000 0.000000
					}
				}
			}
		}
	}
	JOINT RightUpLeg
	{
		OFFSET -0.067670 -0.090522 -0.004320
		CHANNELS 3 Zrotation Yrotation Xrotation
		JOINT RightLeg
		{
			OFFSET -0.038290 -0.382569 -0.008850
			CHANNELS 3 Zrotation Yrotation Xrotation
			JOINT RightFoot
			{
				OFFSET 0.015774 -0.398415 -0.042312
				CHANNELS 3 Zrotation Yrotation Xrotation
				JOINT RightToe
				{
					OFFSET -0.025372 -0.048144 0.123348
					CHANNELS 3 Zrotation Yrotation Xrotation
					End Site
					{
						OFFSET 0.000000 0.000000 0.000000
					}
				}
			}
		}
	}
	JOINT Spine
	{
		OFFSET -0.002533 0.108963 -0.026696
		CHANNELS 3 Zrotation Yrotation Xrotation
		JOINT Spine1
		{
			OFFSET 0.005487 0.135180 0.001092
			CHANNELS 3 Zrotation Yrotation Xrotation
			JOINT Spine2
			{
				OFFSET 0.001457 0.052922 0.025425
				CHANNELS 3 Zrotation Yrotation Xrotation
				JOINT Neck
				{
					OFFSET -0.002778 0.213870 -0.042857
					CHANNELS 3 Zrotation Yrotation Xrotation
					JOINT Head
					{
						OFFSET 0.005152 0.064970 0.051349
						CHANNELS 3 Zrotation Yrotation Xrotation
						End Site
						{
							OFFSET 0.000000 0.000000 0.000000
						}
					}
				}
				JOINT LeftShoulder
				{
					OFFSET 0.078845 0.121749 -0.034090
					CHANNELS 3 Zrotation Yrotation Xrotation
					JOINT LeftArm
					{
						OFFSET 0.090977 0.030469 -0.008868
						CHANNELS 3 Zrotation Yrotation Xrotation
						JOINT LeftForeArm
						{
							OFFSET 0.259612 -0.012772 -0.027456
							CHANNELS 3 Zrotation Yrotation Xrotation
							JOINT LeftHand
							{
								OFFSET 0.249234 0.008986 -0.001171
								CHANNELS 3 Zrotation Yrotation Xrotation
								End Site
								{
									OFFSET 0.000000 0.000000 0.000000
								}
							}
						}
					}
				}
				JOINT RightShoulder
				{
					OFFSET -0.081759 0.118833 -0.038615
					CHANNELS 3 Zrotation Yrotation Xrotation
					JOINT RightArm
					{
						OFFSET -0.096012 0.032551 -0.009143
						CHANNELS 3 Zrotation Yrotation Xrotation
						JOINT RightForeArm
						{
							OFFSET -0.253742 -0.013329 -0.021401
							CHANNELS 3 Zrotation Yrotation Xrotation
							JOINT RightHand
							{
								OFFSET -0.255298 0.007772 -0.005559
								CHANNELS 3 Zrotation Yrotation Xrotation
								End Site
								{
									OFFSET 0.000000 0.000000 0.000000
								}
							}
						}
					}
				}
			}
		}
	}
}
MOTION
Frames: 6
Frame Time: 0.050000
0.000000 0.942233 0.000000 -0.234574 -4.292018 5.448037 5.571788 -0.257733 -3.968515 0.111128 0.034338 -1.391712 -9.067013 -8.675864 16.728868 0.000000 0.000000 0.000000 -3.242865 0.393731 -3.551214 -3.987436 0.168124 -2.953039 -5.356564 -15.520043 12.752472 0.000000 0.000000 0.000000 5.221188 0.165362 -3.286866 -3.187830 1.468998 -2.104806 -3.977461 5.571824 -0.103909 6.494524 -3.572087 -8.213212 0.000000 0.000000 0.000000 -18.239135 -0.524975 -2.610460 -52.608944 -4.426248 -3.720337 -7.370188 -16.193086 1.491219 0.000000 0.000000 0.000000 16.584529 -5.659415 -3.732153 60.942576 3.119682 -3.724375 8.368144 20.052367 2.097575 0.000000 0.000000 0.000000 
0.000203 0.941230 0.000544 -0.244794 -5.008143 6.079541 5.425729 -0.235042 -3.368505 0.246732 0.091434 -3.358712 -8.686658 -8.224759 16.684789 0.000000 0.000000 0.000000 -3.209148 0.471195 -4.519419 -4.195849 0.201450 -2.629654 -5.105245 -15.096976 12.330528 0.000000 0.000000 0.000000 6.078224 0.210765 -3.763254 -3.845901 1.750934 -2.438035 -4.891189 6.170773 -0.472975 6.867894 -3.537694 -9.630201 0.000000 0.000000 0.000000 -18.753901 0.132607 -3.142220 -51.473440 -4.468080 -3.540959 -8.274773 -16.363100 1.617046 0.000000 0.000000 0.000000 16.956521 -6.775985 -4.287060 61.762468 2.658265 -3.954879 8.456563 19.645105 2.075998 0.000000 0.000000 0.000000 
0.000334 0.941026 0.000755 0.095074 -4.800977 5.925888 4.809399 -0.271053 -3.893882 0.693362 0.007200 -2.239173 -8.719830 -8.371727 16.436672 0.000000 0.000000 0.000000 -3.475441 0.490409 -4.787313 -4.373237 0.281570 -1.786306 -5.292476 -15.368741 12.054785 0.000000 0.000000 0.000000 5.810653 0.189259 -3.548963 -3.506312 1.566113 -3.821807 -5.164245 5.893199 0.413815 6.571115 -3.522557 -8.772223 0.000000 0.000000 0.000000 -18.758416 -0.052694 -2.976302 -51.438871 -3.664504 -3.972307 -8.039790 -16.101042 1.572682 0.000000 0.000000 0.000000 18.164011 -5.956443 -4.002915 60.317481 2.348215 -4.190588 8.399443 19.906357 2.101137 0.000000 0.000000 0.000000 
0.000359 0.940770 0.000937 0.150536 -4.723095 6.482377 5.167510 -0.290153 -4.327631 -0.027052 0.088134 -2.570541 -8.794668 -8.388429 16.619668 0.000000 0.000000 0.000000 -3.576039 0.540085 -5.425160 -4.311782 0.283737 -1.688039 -5.375111 -15.511938 12.038349 0.000000 0.000000 0.000000 5.810778 0.200731 -3.775696 -3.805531 1.706082 -3.397321 -4.992257 5.278943 -0.794564 6.424406 -3.613320 -7.696350 0.000000 0.000000 0.000000 -18.467198 0.912235 -3.329673 -52.054043 -3.994885 -3.802621 -7.070071 -15.927428 1.428161 0.000000 0.000000 0.000000 16.844619 -6.354948 -4.201831 60.956160 1.720840 -4.370238 9.907894 20.449253 2.380248 0.000000 0.000000 0.000000 
0.000314 0.941259 0.000981 0.294243 -4.476823 6.518392 4.730993 -0.325357 -4.788514 0.510228 0.013571 -1.931333 -8.900141 -8.486839 16.677973 0.000000 0.000000 0.000000 -3.644329 0.553717 -5.634962 -4.423643 0.324564 -1.306475 -5.506964 -15.738349 12.138833 0.000000 0.000000 0.000000 5.672856 0.179308 -3.584467 -3.481729 1.564156 -3.485870 -5.391347 5.356176 -0.896453 6.474264 -3.605376 -7.829762 0.000000 0.000000 0.000000 -18.428174 0.838888 -3.359071 -51.898472 -4.153095 -3.702544 -7.417942 -15.797718 1.454964 0.000000 0.000000 0.000000 16.804792 -6.805464 -4.374078 60.917714 1.627606 -4.389776 10.508056 20.754726 2.536141 0.000000 0.000000 0.000000 
0.000288 0.941536 0.001002 0.329798 -4.560162 6.810860 4.884258 -0.337224 -5.085392 0.163141 0.048622 -1.956711 -8.896076 -8.391673 16.880532 0.000000 0.000000 0.000000 -3.658070 0.574981 -5.896797 -4.486730 0.317866 -1.446580 -5.459332 -15.684122 12.270027 0.000000 0.000000 0.000000 5.621650 0.174027 -3.580739 -3.396570 1.514735 -3.963565 -5.510218 5.558887 -0.873965 6.748351 -3.844427 -7.515659 0.000000 0.000000 0.000000 -18.348810 1.174108 -3.553776 -51.934836 -4.016538 -3.763043 -7.355995 -15.574627 1.421154 0.000000 0.000000 0.000000 16.169830 -7.045906 -4.387515 61.557184 1.305881 -4.564643 10.663828 20.672661 2.557714 0.000000 0.000000 0.000000 
